Coordinates
version=1
nRows=20
nColumns=23
inDegrees=yes

Units are S.I. units (second, meters, Newtons, ...)
Angles are in degrees.

endheader
time	pelvis_tilt	pelvis_list	pelvis_rotation	pelvis_tx	pelvis_ty	pelvis_tz	hip_flexion_r	hip_adduction_r	hip_rotation_r	knee_angle_r	knee_angle_r_beta	ankle_angle_r	subtalar_angle_r	mtp_angle_r	hip_flexion_l	hip_adduction_l	hip_rotation_l	knee_angle_l	knee_angle_l_beta	ankle_angle_l	subtalar_angle_l	mtp_angle_l
    120.99555600	    -20.17694520	     -2.87429605	     -0.65048845	      0.02549084	      1.38202301	      0.21725936	     79.63749255	      0.02417962	      5.42755904	     88.74212085	      1.54884219	     11.86927507	      0.00000000	      0.00000000	     45.43281751	     -8.10366949	     -1.00971691	     53.41283526	      0.93222984	      2.56878737	      0.00000000	      0.00000000
    121.00444400	    -19.94435211	     -2.51217424	      0.02280924	      0.02518583	      1.38207827	      0.21701543	     78.15240239	     -0.59994454	      5.66569852	     85.87203507	      1.49874975	     12.41254000	      0.00000000	      0.00000000	     46.42613020	     -7.37431792	     -0.28516312	     57.10665211	      0.99669910	      3.92753398	      0.00000000	      0.00000000
    121.01333300	    -19.69203571	     -2.12089976	      0.72219401	      0.02498293	      1.38208673	      0.21677270	     76.48740743	     -1.28286340	      5.87650067	     82.84157950	      1.44585832	     12.87710435	      0.00000000	      0.00000000	     47.46640170	     -6.60936026	      0.36674350	     60.80279475	      1.06120896	      5.05063593	      0.00000000	      0.00000000
    121.02222200	    -19.43305080	     -1.68976446	      1.45191470	      0.02494253	      1.38205686	      0.21654681	     74.66302981	     -2.02678661	      6.06701673	     79.68036660	      1.39068475	     13.24097211	      0.00000000	      0.00000000	     48.53728838	     -5.79733972	      0.96894444	     64.44815810	      1.12483256	      5.97192624	      0.00000000	      0.00000000
    121.03111100	    -19.16874743	     -1.08323555	      2.22674469	      0.02492999	      1.38191268	      0.21623896	     72.73905824	     -2.93734245	      6.31942928	     76.41738073	      1.33373490	     13.45048484	      0.00000000	      0.00000000	     49.62559301	     -4.81165642	      1.42477712	     68.02911784	      1.18733209	      6.78016332	      0.00000000	      0.00000000
    121.04000000	    -18.86765860	     -0.57024112	      3.00296748	      0.02501711	      1.38180845	      0.21595817	     70.63217450	     -3.84003992	      6.37956473	     73.02069134	      1.27445149	     13.54961972	      0.00000000	      0.00000000	     50.74674581	     -3.92230470	      1.86041766	     71.57555224	      1.24922905	      7.39235787	      0.00000000	      0.00000000
    121.04888900	    -18.61499446	      0.16137709	      3.81613913	      0.02515956	      1.38144532	      0.21574508	     68.54404847	     -4.91971549	      6.51250310	     69.63959373	      1.21544020	     13.40381284	      0.00000000	      0.00000000	     51.92373959	     -2.86126606	      2.08001320	     75.03089371	      1.30953614	      7.87413566	      0.00000000	      0.00000000
    121.05777800	    -18.45849429	      1.02611060	      4.65780129	      0.02546684	      1.38115849	      0.21540337	     66.46149770	     -6.16143335	      6.60665582	     66.15990773	      1.15470822	     13.01834359	      0.00000000	      0.00000000	     53.17387176	     -1.67734443	      2.12510022	     78.28533621	      1.36633687	      8.26588540	      0.00000000	      0.00000000
    121.06666700	    -18.23201917	      1.63802567	      5.45296387	      0.02569873	      1.38084829	      0.21519204	     64.21421119	     -7.24183587	      6.36597840	     62.61925645	      1.09291220	     12.48840889	      0.00000000	      0.00000000	     54.47784806	     -0.76629225	      2.24407530	     81.55136687	      1.42333986	      8.52215659	      0.00000000	      0.00000000
    121.07555600	    -18.18072249	      2.54973990	      6.27508835	      0.02600609	      1.38035015	      0.21495095	     62.17504089	     -8.56553768	      6.22602040	     59.16992966	      1.03271009	     11.59717435	      0.00000000	      0.00000000	     55.91528677	      0.36921282	      2.03876930	     84.60576867	      1.47664923	      8.72290831	      0.00000000	      0.00000000
    121.08444400	    -18.14717563	      3.26811785	      7.05702471	      0.02628233	      1.37986045	      0.21475068	     60.10323456	     -9.76392471	      5.80024354	     55.71145911	      0.97234839	     10.43685242	      0.00000000	      0.00000000	     57.44832158	      1.29507770	      1.85753531	     87.57095934	      1.52840157	      8.85735386	      0.00000000	      0.00000000
    121.09333300	    -18.18484059	      3.87237627	      7.80208074	      0.02658597	      1.37940195	      0.21464771	     58.07323566	    -10.85981775	      5.19282128	     52.28440952	      0.91253509	      9.08110533	      0.00000000	      0.00000000	     59.09761999	      2.07925528	      1.64282466	     90.39141541	      1.57762781	      8.92169455	      0.00000000	      0.00000000
    121.10222200	    -18.32227046	      4.48093179	      8.51875482	      0.02686378	      1.37889564	      0.21453491	     56.18046870	    -11.94284823	      4.50730346	     48.97440180	      0.85476456	      7.43318718	      0.00000000	      0.00000000	     60.86249428	      2.81923244	      1.30683243	     93.02456980	      1.62358503	      8.96539069	      0.00000000	      0.00000000
    121.11111100	    -18.53391195	      4.94746946	      9.19433491	      0.02715997	      1.37838905	      0.21449257	     54.38080129	    -12.88371344	      3.67045948	     45.77793937	      0.79897577	      5.54039984	      0.00000000	      0.00000000	     62.73162815	      3.40527213	      0.98434182	     95.48975357	      1.66661060	      8.99447923	      0.00000000	      0.00000000
    121.12000000	    -18.80539121	      5.27872113	      9.82743715	      0.02746825	      1.37789273	      0.21450101	     52.67059101	    -13.67216735	      2.73091618	     42.72097507	      0.74562167	      3.52266478	      0.00000000	      0.00000000	     64.68136932	      3.85609370	      0.68648986	     97.76682130	      1.70635293	      9.00666147	      0.00000000	      0.00000000
    121.12888900	    -19.14479071	      5.63284422	     10.41568927	      0.02780628	      1.37743961	      0.21454169	     51.10698904	    -14.42516164	      1.83289700	     39.87002455	      0.69586320	      1.31555184	      0.00000000	      0.00000000	     66.66268375	      4.26910256	      0.28117499	     99.80696594	      1.74196017	      9.07011851	      0.00000000	      0.00000000
    121.13777800	    -19.51779994	      5.91013249	     10.96315636	      0.02816729	      1.37702320	      0.21463451	     49.64608585	    -15.06607101	      0.92255851	     37.23921000	      0.64994683	     -0.92265514	      0.00000000	      0.00000000	     68.65913287	      4.59526829	     -0.11659579	    101.63087843	      1.77379345	      9.16858739	      0.00000000	      0.00000000
    121.14666700	    -19.88393324	      5.95632371	     11.44546809	      0.02855964	      1.37662198	      0.21473898	     48.22812667	    -15.44503376	     -0.04724106	     34.79542291	      0.60729469	     -3.09344374	      0.00000000	      0.00000000	     70.66444187	      4.74727200	     -0.36407424	    103.26973219	      1.80239684	      9.24873297	      0.00000000	      0.00000000
    121.15555600	    -20.24534168	      5.98066191	     11.88094383	      0.02891357	      1.37624824	      0.21481792	     46.91872501	    -15.75793086	     -0.95330644	     32.63984870	      0.56967283	     -5.16773456	      0.00000000	      0.00000000	     72.61480159	      4.86350397	     -0.62210737	    104.66843044	      1.82680873	      9.38052134	      0.00000000	      0.00000000
    121.16444400	    -20.60012288	      5.97213124	     12.27095594	      0.02931017	      1.37592747	      0.21491333	     45.70148703	    -15.98085140	     -1.74099266	     30.77792959	      0.53717621	     -7.04690617	      0.00000000	      0.00000000	     74.49460919	      4.95098949	     -0.87649964	    105.82101083	      1.84692506	      9.55189875	      0.00000000	      0.00000000
